<svg width="94" height="25" viewBox="0 0 94 25" fill="none" xmlns="http://www.w3.org/2000/svg">
<g id="gabo">
<path d="M16.0341 8.32963C15.9053 7.85236 15.7159 7.43191 15.4659 7.06827C15.2159 6.69706 14.9091 6.38267 14.5454 6.12509C14.1818 5.86751 13.7651 5.67433 13.2954 5.54554C12.8257 5.40918 12.3106 5.341 11.75 5.341C10.6212 5.341 9.64393 5.61373 8.81817 6.15918C7.99999 6.70463 7.36741 7.50009 6.92044 8.54554C6.47347 9.58342 6.24999 10.8448 6.24999 12.3296C6.24999 13.8221 6.4659 15.0948 6.89772 16.1478C7.32953 17.2008 7.95453 18.0039 8.77272 18.5569C9.5909 19.1099 10.5833 19.3865 11.75 19.3865C12.7803 19.3865 13.6515 19.2198 14.3636 18.8865C15.0833 18.5455 15.6288 18.0645 16 17.4433C16.3712 16.8221 16.5568 16.091 16.5568 15.2501L17.6023 15.3751H11.9432V11.2728H21.9773V14.3524C21.9773 16.4357 21.5341 18.2198 20.6477 19.7046C19.7689 21.1895 18.5568 22.3296 17.0114 23.1251C15.4735 23.9205 13.7045 24.3183 11.7045 24.3183C9.48484 24.3183 7.53408 23.8372 5.85226 22.8751C4.17044 21.913 2.85984 20.5418 1.92044 18.7615C0.98105 16.9736 0.511353 14.8524 0.511353 12.3978C0.511353 10.4887 0.795443 8.79554 1.36363 7.31827C1.93181 5.83342 2.72347 4.57585 3.73863 3.54554C4.76135 2.51524 5.94317 1.73494 7.28408 1.20463C8.63257 0.674331 10.0833 0.40918 11.6364 0.40918C12.9848 0.40918 14.2386 0.602362 15.3977 0.988726C16.5644 1.37509 17.5947 1.92054 18.4886 2.62509C19.3901 3.32963 20.1212 4.16676 20.6818 5.13645C21.2424 6.10615 21.5909 7.17054 21.7273 8.32963H16.0341Z" fill="white"/>
<path d="M30.3267 24.0001H24.2812L32.1335 0.727362H39.6222L47.4744 24.0001H41.429L35.9631 6.591H35.7812L30.3267 24.0001Z" fill="white"/>
<path d="M49.9801 24.0001V0.727362H59.6846C61.4271 0.727362 62.8854 0.973574 64.0597 1.466C65.2415 1.95842 66.1278 2.64782 66.7187 3.53418C67.3172 4.42054 67.6165 5.44706 67.6165 6.61373C67.6165 7.50009 67.4309 8.29176 67.0596 8.98873C66.6884 9.67812 66.1771 10.2501 65.5256 10.7046C64.874 11.1592 64.1203 11.4774 63.2642 11.6592V11.8865C64.2036 11.9319 65.071 12.1857 65.8665 12.6478C66.6695 13.1099 67.3134 13.7539 67.7983 14.5796C68.2831 15.3978 68.5256 16.3675 68.5256 17.4887C68.5256 18.7387 68.2074 19.8562 67.571 20.841C66.9347 21.8183 66.0142 22.591 64.8096 23.1592C63.6051 23.7198 62.143 24.0001 60.4233 24.0001H49.9801ZM55.6051 19.466H59.0824C60.3021 19.466 61.1998 19.2349 61.7756 18.7728C62.3589 18.3107 62.6506 17.6668 62.6506 16.841C62.6506 16.2425 62.5104 15.7274 62.2301 15.2955C61.9498 14.8561 61.5521 14.519 61.0369 14.2842C60.5218 14.0418 59.9043 13.9205 59.1846 13.9205H55.6051V19.466ZM55.6051 10.2955H58.7187C59.3324 10.2955 59.8778 10.1933 60.3551 9.98873C60.8324 9.78418 61.2036 9.48873 61.4687 9.10236C61.7415 8.716 61.8778 8.25009 61.8778 7.70463C61.8778 6.92433 61.6013 6.3107 61.0483 5.86373C60.4953 5.41676 59.749 5.19327 58.8096 5.19327H55.6051V10.2955Z" fill="white"/>
<path d="M85.7983 10.6592V14.0683H78.3778V10.6592H85.7983ZM93.196 12.3637C93.196 14.9243 92.7036 17.0948 91.7187 18.8751C90.7339 20.6554 89.4006 22.0077 87.7187 22.9319C86.0445 23.8562 84.1657 24.3183 82.0824 24.3183C79.9915 24.3183 78.1089 23.8524 76.4346 22.9205C74.7604 21.9887 73.4309 20.6365 72.446 18.8637C71.4687 17.0834 70.9801 14.9168 70.9801 12.3637C70.9801 9.80312 71.4687 7.63267 72.446 5.85236C73.4309 4.07206 74.7604 2.71979 76.4346 1.79554C78.1089 0.871301 79.9915 0.40918 82.0824 0.40918C84.1657 0.40918 86.0445 0.871301 87.7187 1.79554C89.4006 2.71979 90.7339 4.07206 91.7187 5.85236C92.7036 7.63267 93.196 9.80312 93.196 12.3637ZM87.446 12.3637C87.446 10.8486 87.2301 9.56827 86.7983 8.52282C86.374 7.47736 85.7604 6.68569 84.9574 6.14782C84.1619 5.60994 83.2036 5.341 82.0824 5.341C80.9687 5.341 80.0104 5.60994 79.2074 6.14782C78.4043 6.68569 77.7869 7.47736 77.3551 8.52282C76.9309 9.56827 76.7187 10.8486 76.7187 12.3637C76.7187 13.8789 76.9309 15.1592 77.3551 16.2046C77.7869 17.2501 78.4043 18.0418 79.2074 18.5796C80.0104 19.1175 80.9687 19.3865 82.0824 19.3865C83.2036 19.3865 84.1619 19.1175 84.9574 18.5796C85.7604 18.0418 86.374 17.2501 86.7983 16.2046C87.2301 15.1592 87.446 13.8789 87.446 12.3637Z" fill="white"/>
</g>
</svg>
