<svg width="18" height="18" viewBox="0 0 18 18" fill="none" xmlns="http://www.w3.org/2000/svg">
<g id="basil:instagram-solid">
<path id="Vector" d="M9 6.5625C8.35353 6.5625 7.73355 6.81931 7.27643 7.27643C6.81931 7.73355 6.5625 8.35353 6.5625 9C6.5625 9.64647 6.81931 10.2665 7.27643 10.7236C7.73355 11.1807 8.35353 11.4375 9 11.4375C9.64647 11.4375 10.2665 11.1807 10.7236 10.7236C11.1807 10.2665 11.4375 9.64647 11.4375 9C11.4375 8.35353 11.1807 7.73355 10.7236 7.27643C10.2665 6.81931 9.64647 6.5625 9 6.5625Z" fill="black"/>
<path id="Vector_2" fill-rule="evenodd" clip-rule="evenodd" d="M5.07747 2.31145C7.68449 2.02265 10.3154 2.02265 12.9225 2.31145C14.3467 2.47045 15.495 3.5917 15.6622 5.0212C15.9712 7.6647 15.9712 10.3352 15.6622 12.9787C15.495 14.4082 14.3467 15.5295 12.9232 15.6892C10.3159 15.9781 7.68474 15.9781 5.07747 15.6892C3.65322 15.5295 2.50497 14.4082 2.33772 12.9795C2.0287 10.3357 2.0287 7.66495 2.33772 5.0212C2.50497 3.5917 3.65322 2.47045 5.07747 2.31145ZM12.75 4.49995C12.5511 4.49995 12.3603 4.57897 12.2196 4.71962C12.079 4.86027 12 5.05104 12 5.24995C12 5.44886 12.079 5.63963 12.2196 5.78028C12.3603 5.92093 12.5511 5.99995 12.75 5.99995C12.9489 5.99995 13.1396 5.92093 13.2803 5.78028C13.4209 5.63963 13.5 5.44886 13.5 5.24995C13.5 5.05104 13.4209 4.86027 13.2803 4.71962C13.1396 4.57897 12.9489 4.49995 12.75 4.49995ZM5.43747 8.99995C5.43747 8.05512 5.8128 7.14898 6.4809 6.48088C7.149 5.81279 8.05513 5.43745 8.99997 5.43745C9.9448 5.43745 10.8509 5.81279 11.519 6.48088C12.1871 7.14898 12.5625 8.05512 12.5625 8.99995C12.5625 9.94478 12.1871 10.8509 11.519 11.519C10.8509 12.1871 9.9448 12.5625 8.99997 12.5625C8.05513 12.5625 7.149 12.1871 6.4809 11.519C5.8128 10.8509 5.43747 9.94478 5.43747 8.99995Z" fill="black"/>
</g>
</svg>
