<svg width="24" height="24" viewBox="0 0 24 24" fill="none" xmlns="http://www.w3.org/2000/svg">
<rect x="-0.5" y="0.5" width="23" height="23" rx="11.5" transform="matrix(-1 0 0 1 23 0)" fill="#FBFBFB"/>
<rect x="-0.5" y="0.5" width="23" height="23" rx="11.5" transform="matrix(-1 0 0 1 23 0)" stroke="#EBEBEB"/>
<path d="M13.9139 12.0049L8.28708 17.6317C8.09569 17.8231 8.00319 18.0464 8.00957 18.3016C8.01595 18.5568 8.11483 18.78 8.30622 18.9714C8.49761 19.1628 8.72089 19.2585 8.97608 19.2585C9.23126 19.2585 9.45455 19.1628 9.64593 18.9714L15.5407 13.0958C15.6938 12.9427 15.8086 12.7705 15.8852 12.5791C15.9617 12.3877 16 12.1963 16 12.0049C16 11.8135 15.9617 11.6221 15.8852 11.4308C15.8086 11.2394 15.6938 11.0671 15.5407 10.914L9.64593 5.01928C9.45455 4.82789 9.22807 4.73538 8.96651 4.74176C8.70494 4.74814 8.47847 4.84703 8.28708 5.03841C8.09569 5.2298 8 5.45309 8 5.70827C8 5.96345 8.09569 6.18674 8.28708 6.37813L13.9139 12.0049Z" fill="#1C1B1F"/>
</svg>
