<svg width="24" height="24" viewBox="0 0 24 24" fill="none" xmlns="http://www.w3.org/2000/svg">
<rect x="0.5" y="0.5" width="23" height="23" rx="11.5" fill="#FBFBFB"/>
<rect x="0.5" y="0.5" width="23" height="23" rx="11.5" stroke="#EBEBEB"/>
<path d="M10.0861 12.0049L15.7129 17.6317C15.9043 17.8231 15.9968 18.0464 15.9904 18.3016C15.9841 18.5568 15.8852 18.78 15.6938 18.9714C15.5024 19.1628 15.2791 19.2585 15.0239 19.2585C14.7687 19.2585 14.5455 19.1628 14.3541 18.9714L8.45933 13.0958C8.30622 12.9427 8.19139 12.7705 8.11483 12.5791C8.03828 12.3877 8 12.1963 8 12.0049C8 11.8135 8.03828 11.6221 8.11483 11.4308C8.19139 11.2394 8.30622 11.0671 8.45933 10.914L14.3541 5.01928C14.5455 4.82789 14.7719 4.73538 15.0335 4.74176C15.2951 4.74814 15.5215 4.84703 15.7129 5.03841C15.9043 5.2298 16 5.45309 16 5.70827C16 5.96345 15.9043 6.18674 15.7129 6.37813L10.0861 12.0049Z" fill="#1C1B1F"/>
</svg>
