<svg width="18" height="18" viewBox="0 0 18 18" fill="none" xmlns="http://www.w3.org/2000/svg">
<g id="material-symbols:work">
<path id="Vector" d="M3 15.75C2.5875 15.75 2.2345 15.6033 1.941 15.3097C1.6475 15.0162 1.5005 14.663 1.5 14.25V6C1.5 5.5875 1.647 5.2345 1.941 4.941C2.235 4.6475 2.588 4.5005 3 4.5H6V3C6 2.5875 6.147 2.2345 6.441 1.941C6.735 1.6475 7.088 1.5005 7.5 1.5H10.5C10.9125 1.5 11.2657 1.647 11.5597 1.941C11.8538 2.235 12.0005 2.588 12 3V4.5H15C15.4125 4.5 15.7657 4.647 16.0597 4.941C16.3538 5.235 16.5005 5.588 16.5 6V14.25C16.5 14.6625 16.3533 15.0157 16.0597 15.3097C15.7662 15.6038 15.413 15.7505 15 15.75H3ZM7.5 4.5H10.5V3H7.5V4.5Z" fill="black"/>
</g>
</svg>
